<?xml version="1.0" encoding="UTF-8" standalone="no"?>
<svg width="70px" height="44px" viewBox="0 0 70 44" version="1.1" xmlns="http://www.w3.org/2000/svg" xmlns:xlink="http://www.w3.org/1999/xlink">
    <!-- Generator: Sketch 41.2 (35397) - http://www.bohemiancoding.com/sketch -->
    <title>Page 1</title>
    <desc>Created with Sketch.</desc>
    <defs></defs>
    <g id="Symbols" stroke="none" stroke-width="1" fill="none" fill-rule="evenodd">
        <g id="Button/Dash/Charts-normal" transform="translate(-45.000000, -44.000000)">
            <g id="ico-chart" transform="translate(16.000000, 16.000000)">
                <g id="Page-1" transform="translate(29.000000, 28.000000)">
                    <path d="M1.7649112,32.5191357 L4.5049112,29.2653857 C5.967247,27.528862 8.22705026,27.4257243 9.786634,29.0132917 C12.1772596,31.4468124 15.807442,31.2811304 18.0249112,28.6478857 L27.5049112,17.3903857 C28.967247,15.653862 31.2270503,15.5507243 32.786634,17.1382917 C35.1772596,19.5718124 38.807442,19.4061304 41.0249112,16.7728857 L50.5049112,5.51538575 C51.967247,3.77886198 54.2270503,3.67572425 55.786634,5.26329166 C58.1772596,7.69681239 61.807442,7.53113038 64.0249112,4.89788575 L66.7649112,1.64413575 C67.1206575,1.22168696 67.0665845,0.590835151 66.6441357,0.235088802 C66.221687,-0.120657547 65.5908352,-0.0665845355 65.2350888,0.355864254 L62.4950888,3.60961425 C61.032753,5.34613802 58.7729497,5.44927575 57.213366,3.86170834 C54.8227404,1.42818761 51.192558,1.59386962 48.9750888,4.22711425 L39.4950888,15.4846143 C38.032753,17.221138 35.7729497,17.3242757 34.213366,15.7367083 C31.8227404,13.3031876 28.192558,13.4688696 25.9750888,16.1021143 L16.4950888,27.3596143 C15.032753,29.096138 12.7729497,29.1992757 11.213366,27.6117083 C8.82274035,25.1781876 5.19255797,25.3438696 2.9750888,27.9771143 L0.235088802,31.2308643 C-0.120657547,31.653313 -0.0665845355,32.2841648 0.355864254,32.6399112 C0.778313044,32.9956575 1.40916485,32.9415845 1.7649112,32.5191357 Z" id="Stroke-1" fill="#0DA7FC"></path>
                    <path d="M1.7649112,39.6441357 L4.2719112,36.6670732 C5.86530019,34.7749238 8.33621839,34.6623515 10.0377739,36.3937466 C12.308062,38.7047784 15.6884886,38.835655 18.0891495,36.6972102 L27.2410878,28.5462652 C28.8417739,27.1204167 31.0093836,27.2043378 32.5356328,28.7579779 L33.0378963,29.2688711 C35.308062,31.5797784 38.6884886,31.710655 41.0891495,29.5722102 L49.9640738,21.6682776 C51.6625751,20.1548374 53.9883928,20.3511843 55.5070888,22.1546357 L56.1430888,22.9098857 C58.284787,25.4531523 61.7143337,25.8562309 64.2597931,23.8405994 L66.6207029,21.9715458 C67.0537195,21.6287411 67.1268506,20.9998136 66.7840458,20.5667971 C66.4412411,20.1337805 65.8123136,20.0606494 65.3792971,20.4034542 L63.0182971,22.2725792 C61.3319161,23.6079462 59.1274254,23.3488499 57.6729112,21.6216143 L57.0369112,20.8663643 C54.7999112,18.2099268 51.1817688,17.9044812 48.6337376,20.1748904 L39.7589262,28.0787224 C38.1582261,29.5045833 35.9906164,29.4206622 34.4643672,27.8670221 L33.9621037,27.3561289 C31.691938,25.0452216 28.3115114,24.914345 25.9108505,27.0527898 L16.7589122,35.2037348 C15.1582261,36.6295833 12.9906164,36.5456622 11.4643672,34.9920221 C8.93169096,32.4149312 5.09061542,32.5899264 2.7420888,35.3788018 L0.235088802,38.3558643 C-0.120657547,38.778313 -0.0665845355,39.4091648 0.355864254,39.7649112 C0.778313044,40.1206575 1.40916485,40.0665845 1.7649112,39.6441357 Z" id="Stroke-3" fill="#3F4D60"></path>
                    <path d="M1,44 L69,44 C69.5522847,44 70,43.5522847 70,43 C70,42.4477153 69.5522847,42 69,42 L1,42 C0.44771525,42 0,42.4477153 0,43 C0,43.5522847 0.44771525,44 1,44 Z" id="Stroke-5" fill="#3F4D60"></path>
                </g>
            </g>
        </g>
    </g>
</svg>