<?xml version="1.0" encoding="UTF-8" standalone="no"?>
<svg width="66px" height="58px" viewBox="0 0 66 58" version="1.1" xmlns="http://www.w3.org/2000/svg" xmlns:xlink="http://www.w3.org/1999/xlink">
    <!-- Generator: Sketch 41.2 (35397) - http://www.bohemiancoding.com/sketch -->
    <title>Page 1</title>
    <desc>Created with Sketch.</desc>
    <defs></defs>
    <g id="Symbols" stroke="none" stroke-width="1" fill="none" fill-rule="evenodd">
        <g id="Button/Dash/Dealing-normal" transform="translate(-47.000000, -31.000000)">
            <g id="ico-dealing" transform="translate(16.000000, 16.000000)">
                <g id="Page-1" transform="translate(31.000000, 15.000000)">
                    <path d="M37.1874518,43.4148026 C38.3683453,44.6171669 38.3683453,46.571646 37.1876761,47.7730128 L30.6394518,54.4402956 C29.4693818,55.6316396 27.5804182,55.6316396 26.4103482,54.4402956 L25.5569371,53.5723865 C24.3774173,52.3714205 24.3774173,50.4157504 25.5573482,49.2143662 L32.1053482,42.5473117 C33.2754182,41.3559676 35.1653818,41.3559676 36.3354518,42.5473117 L37.1874518,43.4148026 Z M30.6784518,41.1458956 L24.1304518,47.8129502 C22.1863827,49.792366 22.1863827,52.9948049 24.1304518,54.9742207 L24.9838629,55.8421299 C26.9373818,57.8311676 30.1124182,57.8311676 32.0663482,55.8417117 L38.6143482,49.1746571 C40.5594547,47.1954522 40.5594547,43.9938586 38.6143482,42.0133865 L37.7623482,41.1458956 C35.8084182,39.1564396 32.6323818,39.1564396 30.6784518,41.1458956 Z" id="Stroke-1" fill="#0DA7FC"></path>
                    <path d="M30.6781518,36.7871517 C31.8590453,37.989516 31.8590453,39.9439951 30.6783761,41.1453619 L24.1301518,47.8126447 C22.9600818,49.0039887 21.0711182,49.0039887 19.9010482,47.8126447 L19.0476371,46.9447355 C17.8681173,45.7437696 17.8681173,43.7880995 19.0480482,42.5867153 L25.5960482,35.9196607 C26.7661182,34.7283167 28.6560818,34.7283167 29.8261518,35.9196607 L30.6781518,36.7871517 Z M24.1691518,34.5182447 L17.6211518,41.1852993 C15.6770827,43.1647151 15.6770827,46.367154 17.6211518,48.3465698 L18.4745629,49.214479 C20.4280818,51.2035167 23.6031182,51.2035167 25.5570482,49.2140607 L32.1050482,42.5470062 C34.0501547,40.5678013 34.0501547,37.3662077 32.1050482,35.3857356 L31.2530482,34.5182447 C29.2991182,32.5287887 26.1230818,32.5287887 24.1691518,34.5182447 Z" id="Stroke-3" fill="#0DA7FC"></path>
                    <path d="M24.1688518,30.1595007 C25.3497453,31.361865 25.3497453,33.3163442 24.1690761,34.517711 L17.6208518,41.1849938 C16.4507818,42.3763378 14.5618182,42.3763378 13.3917482,41.1849938 L12.5383371,40.3170846 C11.3588173,39.1161187 11.3588173,37.1604485 12.5387482,35.9590644 L19.0867482,29.2920098 C20.2568182,28.1006658 22.1467818,28.1006658 23.3168518,29.2920098 L24.1688518,30.1595007 Z M17.6598518,27.8905938 L11.1118518,34.5576483 C9.16778272,36.5370642 9.16778272,39.7395031 11.1118518,41.7189189 L11.9652629,42.5868281 C13.9187818,44.5758658 17.0938182,44.5758658 19.0477482,42.5864098 L25.5957482,35.9193553 C27.5408547,33.9401504 27.5408547,30.7385568 25.5957482,28.7580847 L24.7437482,27.8905938 C22.7898182,25.9011378 19.6137818,25.9011378 17.6598518,27.8905938 Z" id="Stroke-5" fill="#0DA7FC"></path>
                    <path d="M17.6596518,23.5318498 C18.8405453,24.7342141 18.8405453,26.6886932 17.6598761,27.8900601 L11.1116518,34.5573429 C9.94158182,35.7486869 8.05261818,35.7486869 6.88254816,34.5573429 L6.02913713,33.6894337 C4.84961728,32.4884678 4.84961728,30.5327976 6.02954816,29.3314135 L12.5775482,22.6643589 C13.7476182,21.4730149 15.6375818,21.4730149 16.8076518,22.6643589 L17.6596518,23.5318498 Z M11.1506518,21.2629429 L4.60265184,27.9299974 C2.65858272,29.9094133 2.65858272,33.1118522 4.60265184,35.091268 L5.45606287,35.9591772 C7.40958182,37.9482149 10.5846182,37.9482149 12.5385482,35.9587589 L19.0865482,29.2917044 C21.0316547,27.3124995 21.0316547,24.1109059 19.0865482,22.1304338 L18.2345482,21.2629429 C16.2806182,19.2734869 13.1045818,19.2734869 11.1506518,21.2629429 Z" id="Stroke-7" fill="#0DA7FC"></path>
                    <path d="M26.7973482,6.78470289 L21.1013482,0.985139258 C19.8114182,-0.328243995 17.7103818,-0.328243995 16.4204518,0.985139258 L0.960451839,16.7262302 C-0.32061728,18.0305915 -0.32061728,20.1374667 0.960451839,21.441828 L6.65651335,27.2404361 L8.08328665,25.8388948 L2.38728665,20.0403494 C1.87041728,19.5140824 1.87041728,18.6539758 2.38734816,18.1276462 L17.8473482,2.38655529 C18.3534182,1.871284 19.1683818,1.871284 19.6744518,2.38655529 L25.3704518,8.18611892 L26.7973482,6.78470289 Z" id="Stroke-9" fill="#3F4D60"></path>
                    <path d="M32.6933518,53.7511807 L35.1343518,56.2365626 C37.3232818,58.4652913 40.8813182,58.4652913 43.0702482,56.2365626 C45.2503498,54.0168227 45.2503498,50.4263063 43.0700533,48.2076027 L41.6435467,49.6094155 C43.0592502,51.0500574 43.0592502,53.3935045 41.6433518,54.8351465 C40.2382818,56.2657633 37.9663182,56.2657633 36.5612482,54.8351465 L34.1202482,52.3497647 L32.6933518,53.7511807 Z" id="Stroke-11" fill="#3F4D60"></path>
                    <path d="M41.6436518,49.6089117 C43.8325818,51.8376404 47.3906182,51.8376404 49.5795482,49.6089117 C51.7596822,47.3903734 51.7596822,43.7986884 49.5793533,41.5799518 L47.1385482,39.0947683 L45.7116518,40.4961844 L48.1526518,42.9815662 C49.5685178,44.4223734 49.5685178,46.7666884 48.1528467,48.2072972 C46.7475818,49.6381124 44.4756182,49.6381124 43.0705482,48.2074956 L41.6436518,49.6089117 Z" id="Stroke-13" fill="#3F4D60"></path>
                    <path d="M45.7119518,40.4958789 L48.1529518,42.9812607 C50.3418818,45.2099894 53.8999182,45.2099894 56.0888482,42.9812607 C58.2689498,40.7615209 58.2689498,37.1710045 56.0886533,34.9523009 L53.6478482,32.4671174 L52.2209518,33.8685335 L54.6619518,36.3539153 C56.0778502,37.7947555 56.0778502,40.1382027 54.6619518,41.5798447 C53.2568818,43.0104615 50.9849182,43.0104615 49.5798482,41.5798447 L47.1388482,39.0944629 L45.7119518,40.4958789 Z" id="Stroke-15" fill="#3F4D60"></path>
                    <path d="M60.1570482,27.2409844 L65.0390482,22.2702207 C66.3201173,20.9658595 66.3201173,18.8589842 65.0390482,17.5546229 L50.2230482,2.46924108 C48.5639187,0.778679231 45.9800288,0.454640311 43.9641973,1.6863838 L37.5782359,5.58803295 C35.7152244,6.72658491 27.690078,7.69356238 26.7970482,6.78429562 C26.4050862,6.38520711 25.7619858,6.38524451 25.3700703,6.78437862 L21.0730703,11.1605241 C19.0200827,13.2508387 19.0200827,16.6324776 21.0731518,18.7228753 C25.6360818,23.3687676 33.0411182,23.3687676 37.6040482,18.7228753 L39.0020482,17.2994571 C41.7560996,14.495332 46.2129758,14.495332 48.9660405,17.2993437 L58.5293393,27.1434085 C58.6417807,27.2591509 58.7754165,27.3418574 58.9181431,27.3913529 C59.3067455,27.6317683 59.8233876,27.5807115 60.1570482,27.2409844 Z M50.3968607,15.9019442 C46.8562242,12.2957662 41.1131004,12.2957662 37.5751518,15.8980411 L36.1771518,17.3214593 C32.3980818,21.1692396 26.2791182,21.1692396 22.5000482,17.3214593 C21.2111173,16.0090933 21.2111173,13.8742231 22.5000482,12.5618571 L26.2896403,8.70246539 C29.169447,9.67257459 36.3682053,8.6714419 38.621065,7.29463995 L45.0069641,3.39302886 C46.2274533,2.6472673 47.7875138,2.84291042 48.7958894,3.87038979 L63.6121518,18.9560389 C64.1290827,19.4823685 64.1290827,20.3424751 63.6121518,20.8688047 L59.3942156,25.1634307 L50.3968607,15.9019442 Z" id="Stroke-17" fill="#0DA7FC"></path>
                    <path d="M52.2212518,33.868228 L54.6622518,36.3536098 C56.8511818,38.5823385 60.4092182,38.5823385 62.5981482,36.3536098 C64.7782498,34.13387 64.7782498,30.5433535 62.5979533,28.32465 L59.9457728,25.7314514 L58.5476272,27.1615523 L61.1856272,29.7406068 C62.5871502,31.1671046 62.5871502,33.5105518 61.1712518,34.9521938 C59.7661818,36.3828106 57.4942182,36.3828106 56.0891482,34.9521938 L53.6481482,32.466812 L52.2212518,33.868228 Z" id="Stroke-19" fill="#3F4D60"></path>
                </g>
            </g>
        </g>
    </g>
</svg>