<?xml version="1.0" encoding="UTF-8" standalone="no"?>
<svg width="60px" height="57px" viewBox="0 0 60 57" version="1.1" xmlns="http://www.w3.org/2000/svg" xmlns:xlink="http://www.w3.org/1999/xlink">
    <!-- Generator: Sketch 41.2 (35397) - http://www.bohemiancoding.com/sketch -->
    <title>Page 1</title>
    <desc>Created with Sketch.</desc>
    <defs></defs>
    <g id="Symbols" stroke="none" stroke-width="1" fill="none" fill-rule="evenodd">
        <g id="Button/Dash/WatchList-normal" transform="translate(-50.000000, -32.000000)">
            <g id="ico-watch" transform="translate(16.000000, 16.000000)">
                <g id="Page-1" transform="translate(33.000000, 16.000000)">
                    <path d="M39.2566099,17.2170958 C39.6912565,18.059411 40.4992657,18.6463534 41.4352396,18.8008491 L57.7362737,21.4740193 C58.5369509,21.6054663 58.8559228,22.587187 58.2853072,23.1637985 L46.6700991,34.9080089 C46.002431,35.5831789 45.6937244,36.5332326 45.8376554,37.4717826 L48.3315651,53.7991925 C48.4540508,54.6015989 47.6194399,55.2080878 46.8940371,54.8436366 L32.1351772,47.4257071 C31.2876475,46.9996921 30.2885525,46.9996921 29.4409898,47.4257236 L14.6820228,54.8437071 C13.9567601,55.2080878 13.1221492,54.6015989 13.244649,53.7991 L15.7386349,37.4711925 C15.8824756,36.5332326 15.573769,35.5831789 14.906146,34.9080545 L3.29110093,23.1640089 C2.72027718,22.587187 3.03924913,21.6054663 3.8401012,21.4739906 L20.1399263,18.8010193 C21.0769343,18.6463534 21.8849435,18.059411 22.3197622,17.2167624 L29.8995901,2.54109581 C30.2720798,1.81961576 31.3041202,1.81961576 31.676536,2.54095271 L39.2566099,17.2170958 Z M28.122536,1.62344729 L20.5426099,16.2993042 C20.3976961,16.580137 20.1282145,16.77589 19.8152396,16.8275509 L3.51627375,19.5003807 C1.11274012,19.8949683 0.156073021,22.8393648 1.86930725,24.5706015 L13.4840991,36.3143911 C13.706901,36.5396964 13.8096232,36.8558271 13.7616554,37.1686174 L11.2675651,53.4972075 C10.9000256,55.9049663 13.4035892,57.7242372 15.5800371,56.6307634 L30.3391772,49.2126929 C30.6216475,49.0707079 30.9545525,49.0707079 31.2369898,49.2126764 L45.9960228,56.6306929 C48.1726108,57.7242372 50.6761744,55.9049663 50.308649,53.4973 L47.8146349,37.1692075 C47.7665768,36.8558271 47.869299,36.5396964 48.092146,36.3143455 L59.7071009,24.5703911 C61.420127,22.8393648 60.4634599,19.8949683 58.0601012,19.5004094 L41.7599263,16.8273807 C41.4479855,16.77589 41.1785039,16.580137 41.0337622,16.2996376 L33.4535901,1.62330419 C32.3360798,-0.541215762 29.2401202,-0.541215762 28.122536,1.62344729 Z" id="Stroke-1" fill="#3F4D60"></path>
                    <path d="M13.2910639,25.6284131 L24.2770639,23.8264131 C25.0098545,23.706312 25.6422494,23.2467309 25.9834506,22.5869592 L31.0926754,12.6955243 C31.3461323,12.2048329 31.1538157,11.6015816 30.6631243,11.3481246 C30.1724329,11.0946677 29.5691816,11.2869843 29.3157246,11.7776757 L24.2067246,21.6686757 C24.1559877,21.766784 24.0621962,21.8349452 23.9534624,21.8527662 L12.9673361,23.6547869 C12.4223342,23.7441819 12.0529919,24.2584621 12.1423869,24.8034639 C12.2317819,25.3484658 12.7460621,25.7178081 13.2910639,25.6284131 Z" id="Stroke-3" fill="#0DA7FC"></path>
                </g>
            </g>
        </g>
    </g>
</svg>