<?xml version="1.0" encoding="UTF-8" standalone="no"?>
<svg width="74px" height="56px" viewBox="0 0 74 56" version="1.1" xmlns="http://www.w3.org/2000/svg" xmlns:xlink="http://www.w3.org/1999/xlink">
    <!-- Generator: Sketch 41.2 (35397) - http://www.bohemiancoding.com/sketch -->
    <title>Group 2</title>
    <desc>Created with Sketch.</desc>
    <defs></defs>
    <g id="Symbols" stroke="none" stroke-width="1" fill="none" fill-rule="evenodd">
        <g id="Button/Dash/Activities-normal" transform="translate(-43.000000, -33.000000)">
            <g id="Group-2" transform="translate(43.000000, 33.000000)">
                <g id="Icon/Menu/Activities">
                    <path d="M6,42 C6,43.1044757 6.89490584,44 8,44 L31,44 C33.7607153,44 36,46.2392847 36,49 L36,53 L38,53 L38,7 C38,3.13471525 34.8652847,0 31,0 L8,0 C6.89490584,0 6,0.8955243 6,2 L6,42 Z M36,53 C36,54.3333333 38,54.3333333 38,53 L38,49 C38,47.0931791 37.2371223,45.3641528 36,44.1015539 L36,53 Z M31,42 L8,42 L8,2 L31,2 C33.7607153,2 36,4.23928475 36,7 L36,44.1015539 C34.7293723,42.8047597 32.9584639,42 31,42 Z" id="Stroke-1" fill="#3F4D60"></path>
                    <path d="M38,44.1015539 L38,7 C38,4.23928475 40.2392847,2 43,2 L66,2 L66,42 L43,42 C41.0415361,42 39.2706277,42.8047597 38,44.1015539 Z M68,42 L68,2 C68,0.8955243 67.1050942,0 66,0 L43,0 C39.1347153,0 36,3.13471525 36,7 L36,53 C36,54.3333333 38,54.3333333 38,53 L38,49 C38,46.2392847 40.2392847,44 43,44 L66,44 C67.1050942,44 68,43.1044757 68,42 Z" id="Stroke-3" fill="#3F4D60"></path>
                    <path d="M36,55 L38,55 C38,52.2392847 40.2392847,50 43,50 L71,50 C72.6562847,50 74,48.6562847 74,47 L74,7 C74,5.34371525 72.6562847,4 71,4 L69,4 C68.4477153,4 68,4.44771525 68,5 C68,5.55228475 68.4477153,6 69,6 L71,6 C71.5517153,6 72,6.44828475 72,7 L72,47 C72,47.5517153 71.5517153,48 71,48 L43,48 C41.0415361,48 39.2706277,48.8047597 38,50.1015539 C36.7628777,51.3641528 36,53.0931791 36,55 C36,56.3333333 38,56.3333333 38,55 L38,45 C38,44.4477153 37.5522847,44 37,44 C36.4477153,44 36,44.4477153 36,45 L36,55 Z" id="Stroke-5" fill="#3F4D60"></path>
                    <path d="M31,48 L3,48 C2.44828475,48 2,47.5517153 2,47 L2,7 C2,6.44828475 2.44828475,6 3,6 L5,6 C5.55228475,6 6,5.55228475 6,5 C6,4.44771525 5.55228475,4 5,4 L3,4 C1.34371525,4 0,5.34371525 0,7 L0,47 C0,48.6562847 1.34371525,50 3,50 L31,50 C33.7607153,50 36,52.2392847 36,55 C36,56.3333333 38,56.3333333 38,55 L38,45 C38,44.4477153 37.5522847,44 37,44 C36.4477153,44 36,44.4477153 36,45 L36,50.1015539 C34.7293723,48.8047597 32.9584639,48 31,48 Z" id="Stroke-7" fill="#3F4D60"></path>
                    <path d="M15,19 L22,19 C22.5522847,19 23,18.5522847 23,18 C23,17.4477153 22.5522847,17 22,17 L15,17 C14.4477153,17 14,17.4477153 14,18 C14,18.5522847 14.4477153,19 15,19 Z" id="Stroke-9" fill="#0DA7FC"></path>
                    <path d="M15,23 L26,23 C26.5522847,23 27,22.5522847 27,22 C27,21.4477153 26.5522847,21 26,21 L15,21 C14.4477153,21 14,21.4477153 14,22 C14,22.5522847 14.4477153,23 15,23 Z" id="Stroke-11" fill="#0DA7FC"></path>
                    <path d="M15,27 L30,27 C30.5522847,27 31,26.5522847 31,26 C31,25.4477153 30.5522847,25 30,25 L15,25 C14.4477153,25 14,25.4477153 14,26 C14,26.5522847 14.4477153,27 15,27 Z" id="Stroke-13" fill="#0DA7FC"></path>
                    <path d="M46,19 L53,19 C53.5522847,19 54,18.5522847 54,18 C54,17.4477153 53.5522847,17 53,17 L46,17 C45.4477153,17 45,17.4477153 45,18 C45,18.5522847 45.4477153,19 46,19 Z" id="Stroke-15" fill="#0DA7FC"></path>
                    <path d="M46,23 L57,23 C57.5522847,23 58,22.5522847 58,22 C58,21.4477153 57.5522847,21 57,21 L46,21 C45.4477153,21 45,21.4477153 45,22 C45,22.5522847 45.4477153,23 46,23 Z" id="Stroke-17" fill="#0DA7FC"></path>
                    <path d="M46,27 L61,27 C61.5522847,27 62,26.5522847 62,26 C62,25.4477153 61.5522847,25 61,25 L46,25 C45.4477153,25 45,25.4477153 45,26 C45,26.5522847 45.4477153,27 46,27 Z" id="Stroke-19" fill="#0DA7FC"></path>
                </g>
            </g>
        </g>
    </g>
</svg>