<?xml version="1.0" encoding="UTF-8" standalone="no"?>
<svg width="62px" height="58px" viewBox="0 0 62 58" version="1.1" xmlns="http://www.w3.org/2000/svg" xmlns:xlink="http://www.w3.org/1999/xlink">
    <!-- Generator: Sketch 41.2 (35397) - http://www.bohemiancoding.com/sketch -->
    <title>ico-news</title>
    <desc>Created with Sketch.</desc>
    <defs></defs>
    <g id="Symbols" stroke="none" stroke-width="1" fill="none" fill-rule="evenodd">
        <g id="Button/Dash/News-normal" transform="translate(-50.000000, -33.000000)">
            <g id="ico-dealing" transform="translate(16.000000, 16.000000)">
                <g id="ico-news" transform="translate(34.000000, 17.000000)">
                    <path d="M27.3889,25 L9.6109,25 C8.16861525,25 6.9999,26.1687153 6.9999,27.611 L6.9999,48.389 C6.9999,49.8312847 8.16861525,51 9.6109,51 L27.3889,51 C28.8311847,51 29.9999,49.8312847 29.9999,48.389 L29.9999,27.611 C29.9999,26.1687153 28.8311847,25 27.3889,25 Z M27.3889,27 C27.7266153,27 27.9999,27.2732847 27.9999,27.611 L27.9999,48.389 C27.9999,48.7267153 27.7266153,49 27.3889,49 L9.6109,49 C9.27318475,49 8.9999,48.7267153 8.9999,48.389 L8.9999,27.611 C8.9999,27.2732847 9.27318475,27 9.6109,27 L27.3889,27 Z" id="Stroke-1" fill="#3F4D60"></path>
                    <path d="M8,11 L26,11 C26.5522847,11 27,10.5522847 27,10 C27,9.44771525 26.5522847,9 26,9 L8,9 C7.44771525,9 7,9.44771525 7,10 C7,10.5522847 7.44771525,11 8,11 Z" id="Stroke-3" fill="#0DA7FC"></path>
                    <g id="Group-8" transform="translate(7.000000, 20.000000)">
                        <path d="M0,0 L4,0" id="Fill-5" fill="#F2F2F2"></path>
                        <path d="M0,0 L4,0" id="Stroke-7" stroke="#3F4D60" stroke-width="2"></path>
                    </g>
                    <g id="Group-12" transform="translate(34.000000, 26.000000)">
                        <path d="M0,0 L11,0" id="Fill-9" fill="#F2F2F2"></path>
                        <path d="M0,0 L11,0" id="Stroke-11" stroke="#3F4D60" stroke-width="2"></path>
                    </g>
                    <g id="Group-16" transform="translate(16.000000, 20.000000)">
                        <path d="M0,0 L29,0" id="Fill-13" fill="#F2F2F2"></path>
                        <path d="M0,0 L29,0" id="Stroke-15" stroke="#3F4D60" stroke-width="2"></path>
                    </g>
                    <g id="Group-20" transform="translate(36.000000, 32.000000)">
                        <path d="M0,0 L9,0" id="Fill-17" fill="#F2F2F2"></path>
                        <path d="M0,0 L9,0" id="Stroke-19" stroke="#3F4D60" stroke-width="2"></path>
                    </g>
                    <g id="Group-24" transform="translate(34.000000, 38.000000)">
                        <path d="M0,0 L11,0" id="Fill-21" fill="#F2F2F2"></path>
                        <path d="M0,0 L11,0" id="Stroke-23" stroke="#3F4D60" stroke-width="2"></path>
                    </g>
                    <g id="Group-28" transform="translate(36.000000, 44.000000)">
                        <path d="M0,0 L9,0" id="Fill-25" fill="#F2F2F2"></path>
                        <path d="M0,0 L9,0" id="Stroke-27" stroke="#3F4D60" stroke-width="2"></path>
                    </g>
                    <g id="Group-32" transform="translate(34.000000, 50.000000)">
                        <path d="M0,0 L11,0" id="Fill-29" fill="#F2F2F2"></path>
                        <path d="M0,0 L11,0" id="Stroke-31" stroke="#3F4D60" stroke-width="2"></path>
                    </g>
                    <path d="M59,15 C59.5527153,15 60,15.4472847 60,16 L60,52 C60,54.2087153 58.2087153,56 56,56 C53.7912847,56 52,54.2087153 52,52 L52,15 L59,15 Z M6,56 C3.79128475,56 2,54.2087153 2,52 L2,3 C2,2.44728475 2.44728475,2 3,2 L49,2 C49.5527153,2 50,2.44728475 50,3 L50,52 C50,53.5365942 50.5778598,54.9384255 51.5280853,56 L6,56 Z M52,3 C52,1.34271525 50.6572847,0 49,0 L3,0 C1.34271525,0 0,1.34271525 0,3 L0,52 C0,55.3132847 2.68671525,58 6,58 L56,58 L56,56 L51.5280853,56 C52.6267859,57.227448 54.2233094,58 56,58 C59.3132847,58 62,55.3132847 62,52 L62,16 C62,14.3427153 60.6572847,13 59,13 L52,13 L52,3 Z" id="Stroke-33" fill="#3F4D60"></path>
                    <path d="M16.9886739,43.1131742 C17.380521,43.6169333 18.1375953,43.6296904 18.5461922,43.1394193 L22.0497057,38.9355911 L25.515391,36.8567558 C25.989006,36.5726655 26.1426461,35.958424 25.8585558,35.484809 C25.5744655,35.011194 24.960224,34.8575539 24.486609,35.1416442 L20.875609,37.3076442 C20.7794182,37.3653427 20.6936203,37.4388137 20.6218078,37.5249807 L17.8048631,40.9050024 L16.0393261,38.6352258 C15.6606911,38.1484522 14.9359971,38.1170715 14.5167017,38.5692929 C14.4238573,38.6694281 14.2595293,38.8456983 14.0464538,39.0726162 C13.6913603,39.4507783 13.3327802,39.82885 12.9937073,40.1810917 C12.9475834,40.2289836 12.9475834,40.2289836 12.901442,40.2767967 C12.4811809,40.7120547 12.1270227,41.0695156 11.8635096,41.3223678 C11.7241521,41.4560874 11.6145616,41.5561792 11.5437404,41.6149717 C11.8757865,41.3393223 11.8084189,41.3821808 12.3146541,41.5499936 C11.7904218,41.3762149 11.2245722,41.6603137 11.0507936,42.1845459 C10.8770149,42.7087782 11.1611137,43.2746278 11.6853459,43.4484064 C12.2011479,43.5053222 12.2011479,43.5053222 12.3907625,43.4259677 C12.5237288,43.3657074 12.5237288,43.3657074 12.6001696,43.3181943 C12.6724369,43.2722186 12.742696,43.2190043 12.8212195,43.1538177 C12.9361265,43.0584272 13.0772304,42.9295534 13.2482303,42.7654716 C13.5338189,42.491437 13.9037779,42.1180279 14.3402251,41.6660063 C14.3874486,41.6170718 14.3874486,41.6170718 14.4345988,41.5681143 C14.6762512,41.3170766 14.9270011,41.0538235 15.1792144,40.7869308 L16.9886739,43.1131742 Z" id="Stroke-35" fill="#0DA7FC"></path>
                </g>
            </g>
        </g>
    </g>
</svg>