<?xml version="1.0" encoding="UTF-8" standalone="no"?>
<svg width="73px" height="64px" viewBox="0 0 73 64" version="1.1" xmlns="http://www.w3.org/2000/svg" xmlns:xlink="http://www.w3.org/1999/xlink">
    <!-- Generator: Sketch 41.2 (35397) - http://www.bohemiancoding.com/sketch -->
    <title>Group 2</title>
    <desc>Created with Sketch.</desc>
    <defs></defs>
    <g id="Symbols" stroke="none" stroke-width="1" fill="none" fill-rule="evenodd">
        <g id="Button/Dash/Orders-normal" transform="translate(-44.000000, -28.000000)">
            <g id="Group" transform="translate(44.000000, 28.000000)">
                <g id="Group-2">
                    <path d="M12,64 L50.344,64 C56.7812847,64 62,58.7812847 62,52.344 L62,15 C62,13.8952847 62.8952847,13 64,13 C64.5522847,13 65,12.5522847 65,12 C65,11.4477153 64.5522847,11 64,11 C61.7907153,11 60,12.7907153 60,15 L60,52.344 C60,57.6767153 55.6767153,62 50.344,62 L12,62 C11.4477153,62 11,62.4477153 11,63 C11,63.5522847 11.4477153,64 12,64 Z" id="Stroke-1" fill="#3F4D60"></path>
                    <path d="M61,0 L22.656,0 C16.2187153,0 11,5.21871525 11,11.656 L11,49 C11,50.1047153 10.1047153,51 9,51 C8.44771525,51 8,51.4477153 8,52 C8,52.5522847 8.44771525,53 9,53 C11.2092847,53 13,51.2092847 13,49 L13,11.656 C13,6.32328475 17.3232847,2 22.656,2 L61,2 C61.5522847,2 62,1.55228475 62,1 C62,0.44771525 61.5522847,0 61,0 Z" id="Stroke-3" fill="#3F4D60"></path>
                    <path d="M61,2 C66.5227153,2 71,6.47728475 71,12 C71,17.5227153 66.5227153,22 61,22 C60.4477153,22 60,22.4477153 60,23 C60,23.5522847 60.4477153,24 61,24 C67.6272847,24 73,18.6272847 73,12 C73,5.37271525 67.6272847,0 61,0 C60.4477153,0 60,0.44771525 60,1 C60,1.55228475 60.4477153,2 61,2 Z" id="Stroke-5" fill="#3F4D60"></path>
                    <path d="M12,40 C5.37271525,40 0,45.3727153 0,52 C0,58.6272847 5.37271525,64 12,64 C12.5522847,64 13,63.5522847 13,63 C13,62.4477153 12.5522847,62 12,62 C6.47728475,62 2,57.5227153 2,52 C2,46.4772847 6.47728475,42 12,42 C12.5522847,42 13,41.5522847 13,41 C13,40.4477153 12.5522847,40 12,40 Z" id="Stroke-7" fill="#3F4D60"></path>
                    <path d="M51.5,48 C51.5,51.3137153 48.8137153,54 45.5,54 C42.1862847,54 39.5,51.3137153 39.5,48 C39.5,44.6862847 42.1862847,42 45.5,42 C48.8137153,42 51.5,44.6862847 51.5,48 Z M53.5,48 C53.5,43.5817153 49.9182847,40 45.5,40 C41.0817153,40 37.5,43.5817153 37.5,48 C37.5,52.4182847 41.0817153,56 45.5,56 C49.9182847,56 53.5,52.4182847 53.5,48 Z" id="Stroke-9" fill="#0DA7FC"></path>
                    <path d="M43.7071068,47.2928932 C43.3165825,46.9023689 42.6834175,46.9023689 42.2928932,47.2928932 C41.9023689,47.6834175 41.9023689,48.3165825 42.2928932,48.7071068 L44.2928932,50.7071068 C44.7232026,51.1374162 45.4348704,51.0868395 45.8,50.6 L48.8,46.6 C49.1313708,46.1581722 49.0418278,45.5313708 48.6,45.2 C48.1581722,44.8686292 47.5313708,44.9581722 47.2,45.4 L44.8918058,48.4775923 L43.7071068,47.2928932 Z" id="Stroke-11" fill="#0DA7FC"></path>
                    <path d="M21,18 L32,18 C32.5522847,18 33,17.5522847 33,17 C33,16.4477153 32.5522847,16 32,16 L21,16 C20.4477153,16 20,16.4477153 20,17 C20,17.5522847 20.4477153,18 21,18 Z" id="Stroke-13" fill="#3F4D60"></path>
                    <path d="M21,24 L30,24 C30.5522847,24 31,23.5522847 31,23 C31,22.4477153 30.5522847,22 30,22 L21,22 C20.4477153,22 20,22.4477153 20,23 C20,23.5522847 20.4477153,24 21,24 Z" id="Stroke-15" fill="#3F4D60"></path>
                    <path d="M34,24 L40,24 C40.5522847,24 41,23.5522847 41,23 C41,22.4477153 40.5522847,22 40,22 L34,22 C33.4477153,22 33,22.4477153 33,23 C33,23.5522847 33.4477153,24 34,24 Z" id="Stroke-17" fill="#3F4D60"></path>
                    <path d="M31,30 L36,30 C36.5522847,30 37,29.5522847 37,29 C37,28.4477153 36.5522847,28 36,28 L31,28 C30.4477153,28 30,28.4477153 30,29 C30,29.5522847 30.4477153,30 31,30 Z" id="Stroke-19" fill="#3F4D60"></path>
                    <path d="M21,30 L26,30 C26.5522847,30 27,29.5522847 27,29 C27,28.4477153 26.5522847,28 26,28 L21,28 C20.4477153,28 20,28.4477153 20,29 C20,29.5522847 20.4477153,30 21,30 Z" id="Stroke-21" fill="#3F4D60"></path>
                    <path d="M40,30 L47,30 C47.5522847,30 48,29.5522847 48,29 C48,28.4477153 47.5522847,28 47,28 L40,28 C39.4477153,28 39,28.4477153 39,29 C39,29.5522847 39.4477153,30 40,30 Z" id="Stroke-23" fill="#3F4D60"></path>
                </g>
            </g>
        </g>
    </g>
</svg>