<?xml version="1.0" encoding="UTF-8" standalone="no"?>
<svg width="66px" height="66px" viewBox="0 0 66 66" version="1.1" xmlns="http://www.w3.org/2000/svg" xmlns:xlink="http://www.w3.org/1999/xlink">
    <!-- Generator: Sketch 41.2 (35397) - http://www.bohemiancoding.com/sketch -->
    <title>Page 1</title>
    <desc>Created with Sketch.</desc>
    <defs></defs>
    <g id="Symbols" stroke="none" stroke-width="1" fill="none" fill-rule="evenodd">
        <g id="Button/Dash/Trades-normal" transform="translate(-47.000000, -27.000000)">
            <g id="Page-1" transform="translate(47.000000, 27.000000)">
                <path d="M45.5616,34.8872 C45.5616,31.914719 42.4702749,29.6472 38.7811556,29.6472 C35.0912981,29.6472 31.9998222,31.9145887 31.9998222,34.8872 C31.9998222,37.698115 33.4633566,38.7671868 37.1100384,39.7256475 C37.2779722,39.7697857 38.2410002,40.0176318 38.5248227,40.0928997 C38.7692504,40.1578002 39.0202666,40.2210791 39.3258268,40.2955747 C39.4687225,40.3304126 39.977058,40.4528137 40.0842105,40.4788843 C42.8644191,41.155317 43.5616,41.6614351 43.5616,43.3654222 C43.5616,45.0761655 41.4764512,46.6054222 38.7811556,46.6054222 C37.1558909,46.6054222 35.6824332,46.038519 34.7993447,45.1374694 C34.2727585,44.6012958 33.9998222,43.9909821 33.9998222,43.3654222 C33.9998222,42.8131375 33.552107,42.3654222 32.9998222,42.3654222 C32.4475375,42.3654222 31.9998222,42.8131375 31.9998222,43.3654222 C31.9998222,44.5401126 32.4934243,45.6438576 33.3716993,46.538122 C34.6466301,47.8389844 36.6387054,48.6054222 38.7811556,48.6054222 C42.4706754,48.6054222 45.5616,46.3385253 45.5616,43.3654222 C45.5616,40.4411564 44.1362243,39.4064056 40.5570231,38.5355757 C40.4466258,38.5087157 39.9389011,38.3864617 39.7995513,38.3524882 C39.5061283,38.2809517 39.2675331,38.220804 39.0377836,38.1598009 C38.7448215,38.0821092 37.7788954,37.8335173 37.6184335,37.7913429 C34.7606232,37.0402219 33.9998222,36.4844777 33.9998222,34.8872 C33.9998222,33.1769271 36.0855318,31.6472 38.7811556,31.6472 C41.4760146,31.6472 43.5616,33.1769985 43.5616,34.8872 C43.5616,35.4394847 44.0093153,35.8872 44.5616,35.8872 C45.1138847,35.8872 45.5616,35.4394847 45.5616,34.8872 Z" id="Stroke-1" fill="#0DA7FC"></path>
                <path d="M39.3958222,30.7014222 L39.3958222,27.5645333 C39.3958222,27.0122486 38.948107,26.5645333 38.3958222,26.5645333 C37.8435375,26.5645333 37.3958222,27.0122486 37.3958222,27.5645333 L37.3958222,30.7014222 C37.3958222,31.253707 37.8435375,31.7014222 38.3958222,31.7014222 C38.948107,31.7014222 39.3958222,31.253707 39.3958222,30.7014222 Z" id="Stroke-3" fill="#0DA7FC"></path>
                <path d="M39.3958222,50.7422222 L39.3958222,47.6053333 C39.3958222,47.0530486 38.948107,46.6053333 38.3958222,46.6053333 C37.8435375,46.6053333 37.3958222,47.0530486 37.3958222,47.6053333 L37.3958222,50.7422222 C37.3958222,51.294507 37.8435375,51.7422222 38.3958222,51.7422222 C38.948107,51.7422222 39.3958222,51.294507 39.3958222,50.7422222 Z" id="Stroke-5" fill="#0DA7FC"></path>
                <path d="M57.2885581,14.3066903 C57.0282964,6.14896206 50.2043459,-0.252766828 42.047394,0.00753099485 C39.4712861,0.0904508842 37.0136677,0.832309159 34.8600975,2.14517563 C34.388531,2.4326535 34.2392978,3.0479805 34.5267756,3.51954695 C34.8142535,3.9911134 35.4295805,4.14034669 35.901147,3.85286882 C37.7617064,2.71862852 39.883219,2.07822737 42.1114603,2.00650459 C49.1641375,1.78144549 55.0645361,7.31676577 55.2895752,14.3704653 C55.3071862,14.9224692 55.7689503,15.3556802 56.3209541,15.3380692 C56.872958,15.3204583 57.3061691,14.8586942 57.2885581,14.3066903 Z" id="Stroke-7" fill="#3F4D60"></path>
                <path d="M35.5188147,7.71333585 C31.8013814,3.35220374 26.386774,0.790488889 20.5551111,0.790488889 C9.69438192,0.790488889 0.888444444,9.59642636 0.888444444,20.4571556 C0.888444444,26.5520921 3.68227997,32.1859754 8.37731777,35.8918739 C8.81082845,36.2340535 9.43964973,36.1600151 9.78182941,35.7265045 C10.1240091,35.2929938 10.0499707,34.6641725 9.61646001,34.3219928 C5.39678986,30.9913127 2.88844444,25.9331318 2.88844444,20.4571556 C2.88844444,10.7009959 10.7989514,2.79048889 20.5551111,2.79048889 C25.7939605,2.79048889 30.6549103,5.09026177 33.9967409,9.01075304 C34.3550127,9.43106211 34.9861773,9.48135321 35.4064864,9.12308134 C35.8267954,8.76480948 35.8770865,8.13364492 35.5188147,7.71333585 Z" id="Stroke-9" fill="#3F4D60"></path>
                <path d="M64,39.1241778 C64,52.8092264 52.9072708,63.9019556 39.2222222,63.9019556 C25.5371736,63.9019556 14.4444444,52.8092264 14.4444444,39.1241778 C14.4444444,25.4391292 25.5371736,14.3464 39.2222222,14.3464 C52.9072708,14.3464 64,25.4391292 64,39.1241778 Z M66,39.1241778 C66,24.3345597 54.0118403,12.3464 39.2222222,12.3464 C24.4326041,12.3464 12.4444444,24.3345597 12.4444444,39.1241778 C12.4444444,53.9137959 24.4326041,65.9019556 39.2222222,65.9019556 C54.0118403,65.9019556 66,53.9137959 66,39.1241778 Z" id="Stroke-11" fill="#3F4D60"></path>
            </g>
        </g>
    </g>
</svg>